<svg xmlns="http://www.w3.org/2000/svg" viewBox="0 0 173.79 42.79"><defs><style>.cls-1{fill:#573b2e;}</style></defs><title>アセット 112</title><g id="レイヤー_2" data-name="レイヤー 2"><g id="素材"><path class="cls-1" d="M14.35,42.79a16.83,16.83,0,0,1-6.72-1.37,11.78,11.78,0,0,1-5.13-4,12.42,12.42,0,0,1-2.32-5.8,22.57,22.57,0,0,1-.18-3,29.8,29.8,0,0,1,.4-4.28,23.44,23.44,0,0,1,1.78-5.76,25.61,25.61,0,0,1,3.26-5.49,22.61,22.61,0,0,1-.76-5.55,18.46,18.46,0,0,1,.58-4.75.91.91,0,0,1,.3-.52.6.6,0,0,1,.29-.15c.3,0,.39.36.27,1.1a20.78,20.78,0,0,0-.18,3.15,29.55,29.55,0,0,0,.58,5.2A21.58,21.58,0,0,1,15,4.82,19.47,19.47,0,0,1,22.81,3.2a22.78,22.78,0,0,1,2.43.13q6.93.76,9.36,5.31a8.34,8.34,0,0,1,1,3.91,10.39,10.39,0,0,1-.94,4.19,12.6,12.6,0,0,1-6.8,6.39,16.83,16.83,0,0,1-6.79,1.35,21.82,21.82,0,0,1-3.2-.23c-5.37-.77-9.09-3.33-11.16-7.64a19.71,19.71,0,0,0-2.22,5.13,28.27,28.27,0,0,0-1.33,5.53Q3,29.21,3,30.51a21.1,21.1,0,0,0,.18,2.7A9,9,0,0,0,5,37.69a8.22,8.22,0,0,0,4.21,2.79,16.36,16.36,0,0,0,4.56.78,20.7,20.7,0,0,0,10.67-2.6,14.15,14.15,0,0,0,4.16-3.58,34.27,34.27,0,0,0,3.22-5.51c.18-.39.37-.53.56-.41s.19.41,0,.85a38.67,38.67,0,0,1-3.17,5.49,16.36,16.36,0,0,1-4,3.79A18.67,18.67,0,0,1,14.35,42.79ZM7.6,15.17q3.2,8.15,13.32,8.14a12.92,12.92,0,0,0,9.16-3.19,9.66,9.66,0,0,0,3.44-7.25A7.09,7.09,0,0,0,30,6.57a11.71,11.71,0,0,0-6.43-1.66,15.45,15.45,0,0,0-7.7,2.2A25,25,0,0,0,7.6,15.17Z"/><path class="cls-1" d="M40,22.5q3.28,0,3.29,4.14a9.76,9.76,0,0,1-1,4.05A16,16,0,0,1,38.52,36a2.17,2.17,0,0,0,2.11,1.13,3.1,3.1,0,0,0,2.3-1.22,12.42,12.42,0,0,0,1.93-2.45l.86-1.55c.18-.33.41-.81.7-1.42l.51-1.13a.33.33,0,0,1,.32-.2c.3,0,.45.08.45.31a.71.71,0,0,1-.09.32l-.27.63c-.18.42-.32.72-.41.9l-.47,1c-.22.46-.42.83-.58,1.1s-.39.63-.68,1.08a10.56,10.56,0,0,1-.76,1.08q-.34.41-.84.9a4.61,4.61,0,0,1-.94.76,4.08,4.08,0,0,1-2.12.68,3.64,3.64,0,0,1-2.88-1.17,6.59,6.59,0,0,1-3.82,1.53q-3.29,0-3.29-4.14a9.76,9.76,0,0,1,1-4.05,14.94,14.94,0,0,1,3.81-5.35A7.17,7.17,0,0,1,40,22.5Zm.5,1.39a4.59,4.59,0,0,0-2.88,1.62,15,15,0,0,0-3,4.41,13,13,0,0,0-1.58,5.32c0,1.38.53,2.06,1.58,2.06a4,4,0,0,0,2.52-1.21,3.79,3.79,0,0,1-.72-2.21C36.51,32.6,37,32,38,32a1.24,1.24,0,0,1,1,.41,1.1,1.1,0,0,1,.38.74,2.78,2.78,0,0,1-.09.69A24.49,24.49,0,0,0,41,30.6a10.17,10.17,0,0,0,1.12-4.5C42.16,24.63,41.61,23.89,40.5,23.89Z"/><path class="cls-1" d="M60.48,23.49q-5.53,9.72-5.54,12.69c0,.78.29,1.17.86,1.17q2.3,0,6.16-7.78c.18-.42.36-.59.54-.5a.41.41,0,0,1,.27.36,1.14,1.14,0,0,1-.18.54,32.24,32.24,0,0,1-4,6.64,4.59,4.59,0,0,1-3.29,1.82,2.84,2.84,0,0,1-2.5-1.26,2.56,2.56,0,0,1-.45-1.6,8.48,8.48,0,0,1,.45-2.45,24.4,24.4,0,0,1,2.48-4.68,2.72,2.72,0,0,0,.49-1.28c0-.32-.25-.48-.76-.48s-1.49.68-2.93,2a31.23,31.23,0,0,0-6.25,8.91,1.15,1.15,0,0,1-.61.56,5.53,5.53,0,0,1-1.33.16,3.13,3.13,0,0,0-1.3.23q.72-1.44,2.83-5.9,3.78-7.87,5-9a2,2,0,0,1,1.49-.54,7,7,0,0,1,.92.13,2.67,2.67,0,0,0,1.1,0q-1.66.9-5.44,8.46a35.6,35.6,0,0,1,3.85-4.16,21.42,21.42,0,0,1,4.16-2.88A8.73,8.73,0,0,1,60,23.4,1.35,1.35,0,0,1,60.48,23.49Z"/><path class="cls-1" d="M60.84,34.65q0-3.74,3.6-12.51H62.1a.28.28,0,0,1-.29-.25.7.7,0,0,1,0-.49.36.36,0,0,1,.34-.25h2.7q1.62-3.55,3-5.94A10.59,10.59,0,0,1,70.47,12a3.71,3.71,0,0,1,1.69-.83,2.19,2.19,0,0,1,.74.09,2,2,0,0,1,1,2.05,9.13,9.13,0,0,1-1,3.75c-.69,1.48-1.37,2.84-2,4.1H73a.3.3,0,0,1,.3.25.7.7,0,0,1,0,.49.36.36,0,0,1-.34.25H70.33a32.69,32.69,0,0,1-6,7.43l-1,4.59a5,5,0,0,0-.13,1.14,2.4,2.4,0,0,0,.31,1.15,1.05,1.05,0,0,0,1,.59,3.52,3.52,0,0,0,1.71-.54q2.16-1.62,4.77-6.8a.85.85,0,0,1,.43-.49c.17-.06.26,0,.29.11a1.25,1.25,0,0,1-.13.65,41.89,41.89,0,0,1-2.34,4.41Q66.78,38.3,64,38.29a2.89,2.89,0,0,1-2.29-1A3.83,3.83,0,0,1,60.84,34.65ZM69.3,22.14H67.18c-.36.84-1.17,2.83-2.43,6A34.45,34.45,0,0,0,69.3,22.14Zm.58-1q3-5.31,3-7.38c0-.6-.1-.9-.31-.9s-.83.48-1.51,1.44a51.34,51.34,0,0,0-3.4,6.84Z"/><path class="cls-1" d="M82.35,29.72A19.19,19.19,0,0,0,80.57,34a12.23,12.23,0,0,0-.29,2.29c0,.59.22.88.67.88s1.28-.52,2.12-1.58a31.63,31.63,0,0,0,3.64-6c.12-.27.26-.42.41-.45s.36,0,.36.27a1.44,1.44,0,0,1-.14.54q-4.14,8.37-7,8.37a2.44,2.44,0,0,1-2.12-1.26,3.48,3.48,0,0,1-.4-1.8,10.53,10.53,0,0,1,.45-2.74q-3.6,5.81-6.21,5.8a2.1,2.1,0,0,1-1.31-.45,3.68,3.68,0,0,1-1.35-3.24q0-4.41,3.83-8.95a9.94,9.94,0,0,1,5.31-3.29,6.39,6.39,0,0,1,1.62-.23,4.79,4.79,0,0,1,3.51,1.45.87.87,0,0,1,.27.94.63.63,0,0,1-.77.36A2.07,2.07,0,0,0,81,23.31q-1.94,0-4.77,3.06a24.6,24.6,0,0,0-3,4.23,10,10,0,0,0-1.76,4.68c0,1.17.38,1.76,1.13,1.76q2.7,0,7.06-8.29a10.72,10.72,0,0,1,1.44-2.27,2,2,0,0,1,1.49-.6,7,7,0,0,1,.92.13,2.63,2.63,0,0,0,1.1,0A17.44,17.44,0,0,0,82.35,29.72Z"/><path class="cls-1" d="M95,27.9a5.49,5.49,0,0,0,1.58-3.19c0-.88-.36-1.31-1.08-1.31q-2.11,0-4.82,3.87A16.66,16.66,0,0,0,89,30.46,9.64,9.64,0,0,0,88.2,34a4.67,4.67,0,0,0,.65,2.59,2.26,2.26,0,0,0,2,1A5.19,5.19,0,0,0,93.42,37a7.49,7.49,0,0,0,2.23-2.07,25.8,25.8,0,0,0,1.59-2.36c.36-.63.86-1.58,1.49-2.84.21-.42.39-.59.54-.52a.35.35,0,0,1,.22.32,7.26,7.26,0,0,1-.6,1.48c-.41.86-.81,1.66-1.22,2.41a16.6,16.6,0,0,1-1.73,2.52,6.73,6.73,0,0,1-5.54,2.52,4.62,4.62,0,0,1-3.62-1.24,4.17,4.17,0,0,1-1.1-2.86,11.38,11.38,0,0,1,1-4.32A19.38,19.38,0,0,1,88.87,26c1.74-2.36,3.75-3.55,6-3.55a3.16,3.16,0,0,1,2.41.79A2.54,2.54,0,0,1,98.05,25a3.32,3.32,0,0,1-1.26,2.61,1.74,1.74,0,0,1-1.05.58A1,1,0,0,1,95,27.9Z"/><path class="cls-1" d="M97.29,34.65q0-3.74,3.6-12.51H98.55a.28.28,0,0,1-.29-.25.7.7,0,0,1,0-.49.36.36,0,0,1,.34-.25h2.7q1.62-3.55,3-5.94A10.59,10.59,0,0,1,106.92,12a3.71,3.71,0,0,1,1.69-.83,2.19,2.19,0,0,1,.74.09,2,2,0,0,1,1,2.05,9.13,9.13,0,0,1-1,3.75c-.69,1.48-1.37,2.84-2,4.1h2.16a.3.3,0,0,1,.3.25.7.7,0,0,1,0,.49.36.36,0,0,1-.34.25h-2.61a32.69,32.69,0,0,1-6,7.43l-1,4.59a5,5,0,0,0-.13,1.14,2.4,2.4,0,0,0,.31,1.15,1.05,1.05,0,0,0,1,.59,3.52,3.52,0,0,0,1.71-.54q2.16-1.62,4.77-6.8a.82.82,0,0,1,.43-.49c.16-.06.26,0,.29.11A1.25,1.25,0,0,1,108,30a41.89,41.89,0,0,1-2.34,4.41q-2.43,3.91-5.18,3.91a2.89,2.89,0,0,1-2.29-1A3.83,3.83,0,0,1,97.29,34.65Zm8.46-12.51h-2.12c-.36.84-1.17,2.83-2.43,6A34.45,34.45,0,0,0,105.75,22.14Zm.58-1q3-5.31,3-7.38c0-.6-.1-.9-.31-.9s-.83.48-1.51,1.44a51.34,51.34,0,0,0-3.4,6.84Z"/><path class="cls-1" d="M160.92,16.56a1.42,1.42,0,0,1,.9,1.31,7,7,0,0,1-1.13,3,42.5,42.5,0,0,0-4.9,13.63,21.23,21.23,0,0,0-.32,3.42c0,2.07.56,3.11,1.67,3.11h.49q.81,0,.81.36c0,.36-.33.59-1,.68h-.54a3.32,3.32,0,0,1-2.29-1.58,5.6,5.6,0,0,1-.88-2.68c0-.91-.07-1.67-.07-2.27a26.07,26.07,0,0,1,.59-5.35A30.08,30.08,0,0,1,148,38a9.07,9.07,0,0,1-5.54,2.34,3.62,3.62,0,0,1-2.92-1.21A6.16,6.16,0,0,1,138.15,35a20.55,20.55,0,0,1,1.39-6.43q1.4-4,3.72-9.07a51,51,0,0,0,3-7.87,21.21,21.21,0,0,0,.7-5q0-3.29-1.76-4.32a10,10,0,0,0-4.77-1.13,20.57,20.57,0,0,0-10.21,3.16q-8.05,4.71-10.89,11.92a15.38,15.38,0,0,0-1.17,5.51,11.57,11.57,0,0,0,.85,4.53c1.26,3.05,3.45,4.59,6.57,4.59q5.49,0,8.78-5.59a10.44,10.44,0,0,0,1.8-5.26q0-3.37-3.06-3.37a8.84,8.84,0,0,0-1.82.24c-.74.17-1.08.16-1,0s.54-.54,1.35-.9a5.94,5.94,0,0,1,2.43-.54,3.05,3.05,0,0,1,2.79,1.57,5.39,5.39,0,0,1,.63,2.66,10.62,10.62,0,0,1-.76,3.6,13.48,13.48,0,0,1-5.85,7A11.18,11.18,0,0,1,125,32.22a7.83,7.83,0,0,1-5-1.67c-2.46-1.88-3.69-4.76-3.69-8.61s1.47-7.63,4.41-11.32a31.17,31.17,0,0,1,9.54-7.74,20.53,20.53,0,0,1,10-2.88A12,12,0,0,1,145,.9c2.91,1.26,4.36,3.68,4.36,7.24a26.18,26.18,0,0,1-2.56,10c-1,2.34-1.95,4.48-2.86,6.41a41.89,41.89,0,0,0-2.27,5.88,17.79,17.79,0,0,0-.9,5q0,3.78,2.52,3.78,2.7,0,6.34-4.5L150.84,33a74.42,74.42,0,0,0,4.65-8.31Q158.36,19,158.4,19C159.3,17.36,160.14,16.56,160.92,16.56Z"/><path class="cls-1" d="M165.33,37.39a5.27,5.27,0,0,0,.81.1c1.2,0,2.38-.71,3.55-2.12a43.85,43.85,0,0,0,3.38-5.9.32.32,0,0,1,.31-.22c.27,0,.41.08.41.32a2,2,0,0,1-.21.51c-.13.29-.26.57-.38.86s-.31.69-.58,1.23-.51,1-.7,1.31-.44.74-.74,1.22a5.48,5.48,0,0,1-.9,1.12l-.95,1a4.26,4.26,0,0,1-1.8,1.08,5.44,5.44,0,0,1-3.24.09,4.69,4.69,0,0,1-1.84.45q-3.19,0-3.87-2.52a6.36,6.36,0,0,1-.14-1.42,2.73,2.73,0,0,1,.56-1.6,1.75,1.75,0,0,1,1.2-.81c1.53-2.9,2.83-5.53,3.91-7.87q1.8-3.83,4.19-3.83a2.72,2.72,0,0,1,1.23.3c.41.19.56.41.45.65s-.32.29-.65.13a2.27,2.27,0,0,0-.85-.22,1.39,1.39,0,0,0-.63.14c-1,.48-1.53,1.51-1.53,3.1a5.12,5.12,0,0,0,.36,2.07c.24.54.51,1.12.81,1.75a10.07,10.07,0,0,1,1,3.83,5.23,5.23,0,0,1-.94,2.92A8.26,8.26,0,0,1,165.33,37.39Zm-4.91-1.52a4.26,4.26,0,0,0,.05.58,1.57,1.57,0,0,0,1.66,1.22,2,2,0,0,0,.9-.18,4,4,0,0,1-1.8-3.38A2.46,2.46,0,0,0,160.42,35.87Zm3.38,1.21q2-1.53,2-4.95a31.85,31.85,0,0,0-.32-3.83,30.91,30.91,0,0,1-.31-3.28,10.24,10.24,0,0,1,0-1.17q-3.42,6.84-4.23,8.32c.63,0,.95.46.95,1.36A3.54,3.54,0,0,0,163.8,37.08Z"/></g></g></svg>