<svg xmlns="http://www.w3.org/2000/svg" viewBox="0 0 77.01 27.81"><defs><style>.cls-1{fill:#573b2e;}</style></defs><title>アセット 114</title><g id="レイヤー_2" data-name="レイヤー 2"><g id="素材"><path class="cls-1" d="M.69,17.1l4.17.09q.09-.36.3-1.29L5.85,13q.24-.81.69-.81c.22,0,.29.18.2.54s-.39,1.84-.89,4.44q.57,0,1.92,0h2a.49.49,0,0,1,.43.15.5.5,0,0,1,.11.27q0,.39-.63.39-1.41,0-4,.18-.09.54-.27,1.47Q5,21.9,5,22.32t-.72.48l-.33,0q-.42,0-.42-.36,0-.18,1-4.2l-2.27.15-2,.12Q0,18.57,0,18,.09,17.19.69,17.1Z"/><path class="cls-1" d="M22.59,13.62q0-2.07-1.95-2.07a6.07,6.07,0,0,0-.66,0,.51.51,0,0,1-.54-.2q-.24-.33.78-.45a4.37,4.37,0,0,1,.72-.06,2.35,2.35,0,0,1,2.37,1.5A4.13,4.13,0,0,1,23.58,14a5.23,5.23,0,0,1-.84,2.44,9,9,0,0,1-4.62,4,5.24,5.24,0,0,1-4.5-.12,5.86,5.86,0,0,1-3.09-3.51,7.49,7.49,0,0,1-.33-2.41A11.24,11.24,0,0,1,11,10.71,17.6,17.6,0,0,1,17.13,3.3Q21.69,0,25.65,0a4.41,4.41,0,0,1,4.5,2.7,7,7,0,0,1,.51,2.82,10.6,10.6,0,0,1-.06,1.11,25.69,25.69,0,0,1-1.56,6,2.87,2.87,0,0,0-.21.77c0,.13,0,.19.09.19s.27-.19.51-.63a45.55,45.55,0,0,1,4.89-7.26A7,7,0,0,1,36.42,4a5.26,5.26,0,0,1,2.41-.72A2,2,0,0,1,40.52,4a3.31,3.31,0,0,1,.61,2.07q0,3-2.37,10.11-.48,1.41-.6,1.8a96.5,96.5,0,0,1,6.11-8.38c2.44-3,4.62-4.86,6.52-5.42a3.24,3.24,0,0,1,.9-.15,1.41,1.41,0,0,1,1.47,1.14,3.06,3.06,0,0,1,.12.9A9.37,9.37,0,0,1,52.08,10a55.53,55.53,0,0,0-3.36,7.83,21.33,21.33,0,0,0-1.23,5.25,8.55,8.55,0,0,0,.27,2.34,2.6,2.6,0,0,0,2.85,1.86h.5c.25,0,.39,0,.42.13s-.05.19-.21.27a1.27,1.27,0,0,1-.52.12,2.1,2.1,0,0,1-.4,0q-4.74-.48-4.74-4.86a12.35,12.35,0,0,1,.64-3.61c.44-1.35.8-2.39,1.1-3.11q.72-1.74,3-6.81a8.14,8.14,0,0,0,.81-2.88q0-1-.84-1-1.17,0-3.63,2.4A40,40,0,0,0,44,11a75.63,75.63,0,0,0-4.35,6.36A52.63,52.63,0,0,0,36,23.76q-.69,1.62-1.83,1.62-.81,0-1-.57a.4.4,0,0,1,0-.37c.06-.09.25-.43.57-1s.65-1.19,1-1.83S35.54,20.09,36,19s.9-2.22,1.3-3.36a41.52,41.52,0,0,0,2-8.7,11.13,11.13,0,0,0,.06-1.27,1.72,1.72,0,0,0-.41-1.22A1.13,1.13,0,0,0,38.07,4Q36.6,4,34.83,6.21A58,58,0,0,0,30.66,12C29.48,14,28.58,15.56,28,16.86s-1.37,2.87-2.2,4.7-1.27,2.8-1.31,2.92-.12.27-.21.45a3.69,3.69,0,0,0-.23.51,1.64,1.64,0,0,1-1.68.87q-.75,0-.81-.48a.88.88,0,0,1,0-.21,53.35,53.35,0,0,0,4.38-9.27Q29,8.49,29,4.89,29,.6,25.44.6C23.92.6,22,1.33,19.7,2.79A19,19,0,0,0,14,8.4,12.06,12.06,0,0,0,12.6,11a12.25,12.25,0,0,0-.78,3.66q0,3.87,2.58,5.1a4.05,4.05,0,0,0,1.83.45q3.24,0,5.31-3.51A6.29,6.29,0,0,0,22.59,13.62Z"/><path class="cls-1" d="M56.7,13.86q2.19,0,2.19,2.76a6.51,6.51,0,0,1-.66,2.7,10.68,10.68,0,0,1-2.52,3.54,1.45,1.45,0,0,0,1.41.75,2.06,2.06,0,0,0,1.53-.81,8.22,8.22,0,0,0,1.29-1.63l.57-1c.12-.22.28-.53.47-.94l.34-.75a.22.22,0,0,1,.21-.14q.3,0,.3.21a.48.48,0,0,1-.06.21l-.18.42q-.18.42-.27.6c-.06.12-.16.34-.32.65s-.28.55-.38.73-.26.42-.45.72-.36.54-.51.72-.34.38-.56.6a3.36,3.36,0,0,1-.63.51,2.76,2.76,0,0,1-1.41.45,2.43,2.43,0,0,1-1.92-.78,4.4,4.4,0,0,1-2.55,1q-2.19,0-2.19-2.76a6.51,6.51,0,0,1,.66-2.7,10,10,0,0,1,2.54-3.57A4.78,4.78,0,0,1,56.7,13.86Zm.33.93a3.06,3.06,0,0,0-1.92,1.08,9.92,9.92,0,0,0-2,2.94,8.61,8.61,0,0,0-1.05,3.54q0,1.38,1.05,1.38a2.7,2.7,0,0,0,1.68-.81,2.53,2.53,0,0,1-.48-1.47q.06-1.29,1.05-1.29a.86.86,0,0,1,.65.27.76.76,0,0,1,.25.5,1.88,1.88,0,0,1-.06.46,16.92,16.92,0,0,0,1.17-2.13,6.78,6.78,0,0,0,.75-3Q58.14,14.79,57,14.79Z"/><path class="cls-1" d="M65.34,12.33a3.27,3.27,0,0,1-1.71,2.55c.4,0,.93,0,1.61,0s1.51-.05,2.53-.15a1.11,1.11,0,0,1,.06.48,3.09,3.09,0,0,1-.36,1.16c-.24.51-.46,1-.64,1.32s-.37.72-.54,1.05-.37.73-.58,1.21-.38.92-.52,1.32q-.75,2.28.24,2.28,1.26,0,3.72-5c.14-.26.26-.36.35-.3a.29.29,0,0,1,.13.23,4.41,4.41,0,0,1-.39.93c-.26.53-.54,1.07-.84,1.63A11.25,11.25,0,0,1,67,23a3.07,3.07,0,0,1-2.19,1.38q-1.17,0-1.62-1.41a2.73,2.73,0,0,1-.09-.81,4.33,4.33,0,0,1,.35-1.44,15.69,15.69,0,0,1,1.09-2.19c.5-.86.78-1.36.84-1.51a1.19,1.19,0,0,0,.09-.44q0-.93-2.4-1l-.36,1q-1.89,4.95-3.63,6.63-.3.27-.3-.18a.48.48,0,0,1,.06-.21,23,23,0,0,0,2.91-5.25,28.52,28.52,0,0,0,1.71-5.76q.18-.93.84-.93t1,.84A2,2,0,0,1,65.34,12.33Z"/><path class="cls-1" d="M70.41,19.74A5.94,5.94,0,0,0,70,22a2.11,2.11,0,0,0,.38,1.34,1.23,1.23,0,0,0,1.06.49q2.73,0,4.95-5.13.21-.48.51-.42a.14.14,0,0,1,.12.15A11.32,11.32,0,0,1,76.33,20,12.61,12.61,0,0,1,75,22.38a4.54,4.54,0,0,1-3.78,2.1,2.89,2.89,0,0,1-2-.78,2.76,2.76,0,0,1-.84-2.13A7.14,7.14,0,0,1,69,18.71a10.53,10.53,0,0,1,1.75-2.82A6.75,6.75,0,0,1,73.26,14a3.31,3.31,0,0,1,1.32-.3,2.07,2.07,0,0,1,1.17.36,1.2,1.2,0,0,1,.51.93q0,1.8-2.16,3.45a6.19,6.19,0,0,1-1.86.91A6,6,0,0,1,70.41,19.74Zm5-4.8q0-.6-.48-.6-.84,0-2.55,2.07a15.43,15.43,0,0,0-1.8,2.82,4.66,4.66,0,0,0,1.48-.36,5.74,5.74,0,0,0,1.7-1A4,4,0,0,0,75.45,14.94Z"/></g></g></svg>