<svg xmlns="http://www.w3.org/2000/svg" viewBox="0 0 109.12 40.72"><defs><style>.cls-1{fill:#573b2e;}</style></defs><title>アセット 111</title><g id="レイヤー_2" data-name="レイヤー 2"><g id="素材"><path class="cls-1" d="M40.59,6.08a4.15,4.15,0,0,0-1.44-3,8,8,0,0,0-5.71-2,21,21,0,0,0-7.07,1.39,11.12,11.12,0,0,0-3.51,2q-2.3,2-2.3,4,0,2.65,3.38,4.77Q25.2,14,29,15.73a53.68,53.68,0,0,1,5.56,2.81A10,10,0,0,1,38.23,22a7.3,7.3,0,0,1,1,3.42A8.42,8.42,0,0,1,37.75,30a22.1,22.1,0,0,1-7.65,7.2,26.54,26.54,0,0,1-14,3.51q-7.87,0-12.51-4A9.86,9.86,0,0,1,0,28.84a13.26,13.26,0,0,1,2.23-6.75,12.93,12.93,0,0,1,5.46-5.21,1.71,1.71,0,0,1,1-.18c.22.05,0,.34-.56.85A13.62,13.62,0,0,0,5,20.92a15.75,15.75,0,0,0-2.52,8.6,8.75,8.75,0,0,0,1.71,5.36Q7.29,39,14.85,39.51c.57.06,1.42.09,2.54.09A23.35,23.35,0,0,0,22,39a21.55,21.55,0,0,0,5.6-2q5.82-3.06,7.52-7.92a7.93,7.93,0,0,0,.54-2.79,7,7,0,0,0-2.74-5.4,31.4,31.4,0,0,0-6.06-3.13,45.77,45.77,0,0,1-6.14-3c-2.31-1.56-3.47-3.4-3.47-5.54,0-1.85,1-3.67,3.11-5.44Q24.8,0,32.94,0a14.44,14.44,0,0,1,6.23,1.15,5,5,0,0,1,2.95,3.44,4.58,4.58,0,0,1,.09.9,4.1,4.1,0,0,1-1.62,3.15,8.58,8.58,0,0,1-3,1.44c-.53.15-.84.09-.9-.18s.32-.63,1.13-.72A2.84,2.84,0,0,0,40.46,7,4,4,0,0,0,40.59,6.08Z"/><path class="cls-1" d="M45.13,29.7a8.91,8.91,0,0,0-.63,3.42,3.19,3.19,0,0,0,.57,2,1.86,1.86,0,0,0,1.59.75q4.1,0,7.43-7.7c.21-.48.46-.69.76-.63a.21.21,0,0,1,.18.22,17.9,17.9,0,0,1-1,2.37A18.84,18.84,0,0,1,52,33.66a6.82,6.82,0,0,1-5.67,3.15,4.33,4.33,0,0,1-3.06-1.17A4.15,4.15,0,0,1,42,32.45a11,11,0,0,1,1-4.3,16.41,16.41,0,0,1,2.63-4.23,10.08,10.08,0,0,1,3.83-2.86,5,5,0,0,1,2-.45,3.09,3.09,0,0,1,1.75.54,1.82,1.82,0,0,1,.77,1.39q0,2.7-3.24,5.18a9.52,9.52,0,0,1-2.79,1.37A9.33,9.33,0,0,1,45.13,29.7Zm7.56-7.2q0-.9-.72-.9c-.84,0-2.11,1-3.82,3.11a23.05,23.05,0,0,0-2.7,4.22,7.15,7.15,0,0,0,2.23-.54A8.38,8.38,0,0,0,50.22,27,6,6,0,0,0,52.69,22.5Z"/><path class="cls-1" d="M60.3,18.58q0,2-2.57,3.83c.6,0,1.41.05,2.41.05s2.27-.08,3.8-.23A1.67,1.67,0,0,1,64,23a4.57,4.57,0,0,1-.54,1.73q-.54,1.16-1,2c-.29.56-.56,1.08-.81,1.58s-.54,1.1-.86,1.82-.58,1.38-.79,2q-1.12,3.42.36,3.42,1.89,0,5.58-7.51c.21-.39.39-.54.52-.45a.37.37,0,0,1,.2.33,6.13,6.13,0,0,1-.58,1.4c-.39.79-.81,1.61-1.26,2.45a16.56,16.56,0,0,1-2.12,2.92c-1.14,1.39-2.23,2.07-3.28,2.07s-2-.7-2.43-2.11a4.1,4.1,0,0,1-.14-1.22,6.59,6.59,0,0,1,.52-2.16,24.79,24.79,0,0,1,1.64-3.28c.75-1.29,1.17-2,1.26-2.27a1.78,1.78,0,0,0,.14-.66c0-.93-1.2-1.42-3.6-1.48l-.54,1.44q-2.84,7.42-5.45,10c-.3.26-.45.17-.45-.28a.71.71,0,0,1,.09-.31,34.43,34.43,0,0,0,4.37-7.87,43,43,0,0,0,2.56-8.65c.18-.92.6-1.39,1.26-1.39s1.14.42,1.44,1.26A3,3,0,0,1,60.3,18.58Z"/><path class="cls-1" d="M77.89,20.92l-.22.82a55.11,55.11,0,0,1-4.23,10.43Q70.6,37,67.5,37A2.2,2.2,0,0,1,65,34.51a19.72,19.72,0,0,1,1.35-5.71c-.3.48-.53.64-.7.47a.52.52,0,0,1-.11-.6l.81-1.54a7.94,7.94,0,0,0,.85-3.5c0-1.17-.24-1.87-.72-2.08a24.64,24.64,0,0,1,3.15-.42.56.56,0,0,1,.57.38,2.88,2.88,0,0,1,.11.81,18.62,18.62,0,0,1-1.42,6.48,18.43,18.43,0,0,0-1.42,5c0,.85.14,1.35.41,1.48a1.73,1.73,0,0,0,.81.2c.78,0,1.66-.62,2.65-1.88a23.56,23.56,0,0,0,3-5.58,6.09,6.09,0,0,1-.36-4.5,4.52,4.52,0,0,1,2.57-3.2,1.89,1.89,0,0,1,.67-.13A.63.63,0,0,1,77.89,20.92Z"/><path class="cls-1" d="M79.47,35.64a2.76,2.76,0,0,0,1.8-.85A28.86,28.86,0,0,0,85.5,28c.21-.45.42-.58.63-.41a.43.43,0,0,1,.09.3,3.74,3.74,0,0,1-.36,1l-.65,1.42c-.2.42-.57,1.1-1.13,2a14.46,14.46,0,0,1-1.51,2.18c-1.23,1.42-2.39,2.12-3.48,2.12a2.73,2.73,0,0,1-2.37-1A3.65,3.65,0,0,1,76,33.43a7.14,7.14,0,0,1,.59-2.65l2.88-7.33a2.41,2.41,0,0,0,.09-.73A2.24,2.24,0,0,0,79,21.55l2.47,0c.69,0,1.1.13,1.22.38s0,.65-.27,1.19l-3.6,8.42a7.05,7.05,0,0,0-.77,2.83C78.07,35.21,78.54,35.64,79.47,35.64Zm4.41-16.51a2.11,2.11,0,0,1-1.4.54,1.49,1.49,0,0,1-1.21-.54,1.67,1.67,0,0,1-.36-1.31,2.22,2.22,0,0,1,.76-1.31,2.16,2.16,0,0,1,1.4-.54,1.61,1.61,0,0,1,1.24.54,1.52,1.52,0,0,1,.33,1.31A2.22,2.22,0,0,1,83.88,19.13Z"/><path class="cls-1" d="M93.82,26.28a5.49,5.49,0,0,0,1.58-3.2c0-.87-.36-1.3-1.08-1.3q-2.11,0-4.82,3.87a16.66,16.66,0,0,0-1.66,3.19A9.64,9.64,0,0,0,87,32.42,4.58,4.58,0,0,0,87.68,35a2.25,2.25,0,0,0,2,1,5.2,5.2,0,0,0,2.55-.65,7.49,7.49,0,0,0,2.23-2.07,27.27,27.27,0,0,0,1.59-2.36c.36-.63.86-1.58,1.49-2.84.21-.42.39-.59.54-.52a.35.35,0,0,1,.22.32,7,7,0,0,1-.61,1.48c-.4.86-.8,1.66-1.21,2.41a16.6,16.6,0,0,1-1.73,2.52,6.73,6.73,0,0,1-5.54,2.52,4.62,4.62,0,0,1-3.62-1.24,4.14,4.14,0,0,1-1.1-2.86,11.38,11.38,0,0,1,1-4.32,19.13,19.13,0,0,1,2.22-4.05c1.74-2.36,3.75-3.55,6-3.55a3.16,3.16,0,0,1,2.41.79,2.54,2.54,0,0,1,.74,1.82A3.32,3.32,0,0,1,95.62,26a1.74,1.74,0,0,1-1.06.58A1,1,0,0,1,93.82,26.28Z"/><path class="cls-1" d="M99.22,29.7a8.91,8.91,0,0,0-.63,3.42,3.25,3.25,0,0,0,.56,2,1.89,1.89,0,0,0,1.6.75q4.09,0,7.43-7.7c.21-.48.46-.69.76-.63a.21.21,0,0,1,.18.22,19.72,19.72,0,0,1-1,2.37,18.84,18.84,0,0,1-2,3.53,6.82,6.82,0,0,1-5.67,3.15,4.33,4.33,0,0,1-3.06-1.17,4.15,4.15,0,0,1-1.26-3.19,10.86,10.86,0,0,1,1-4.3,16.14,16.14,0,0,1,2.63-4.23,10.08,10.08,0,0,1,3.83-2.86,5,5,0,0,1,2-.45,3.09,3.09,0,0,1,1.75.54,1.82,1.82,0,0,1,.77,1.39q0,2.7-3.24,5.18A9.52,9.52,0,0,1,102,29.09,9.33,9.33,0,0,1,99.22,29.7Zm7.56-7.2q0-.9-.72-.9c-.84,0-2.11,1-3.82,3.11a23.05,23.05,0,0,0-2.7,4.22,7.15,7.15,0,0,0,2.23-.54A8.38,8.38,0,0,0,104.31,27,6,6,0,0,0,106.78,22.5Z"/></g></g></svg>