<?xml version="1.0" encoding="utf-8"?>
<!-- Generator: Adobe Illustrator 24.0.0, SVG Export Plug-In . SVG Version: 6.00 Build 0)  -->
<svg version="1.1" id="レイヤー_1" xmlns="http://www.w3.org/2000/svg" xmlns:xlink="http://www.w3.org/1999/xlink" x="0px"
	 y="0px" viewBox="0 0 300 80" style="enable-background:new 0 0 300 80;" xml:space="preserve">
<style type="text/css">
	.st0{fill:#573B2E;}
	.st1{fill:#4D1C16;}
</style>
<g>
	<path class="st0" d="M35.67,54.19c-2.34,0-4.58-0.46-6.73-1.37c-2.15-0.92-3.86-2.26-5.13-4.03c-1.28-1.77-2.05-3.7-2.32-5.81
		c-0.12-0.9-0.18-1.89-0.18-2.97s0.13-2.5,0.4-4.27s0.86-3.69,1.78-5.76c0.92-2.07,2-3.9,3.26-5.49c-0.51-2.01-0.77-3.86-0.77-5.56
		c0-1.69,0.19-3.28,0.58-4.75c0.06-0.24,0.16-0.41,0.29-0.52c0.14-0.1,0.23-0.16,0.29-0.16c0.3,0,0.39,0.37,0.27,1.1
		c-0.12,0.74-0.18,1.79-0.18,3.15c0,1.37,0.19,3.1,0.58,5.2c2.4-3.09,5.22-5.34,8.46-6.75c2.49-1.08,5.1-1.62,7.83-1.62
		c0.78,0,1.59,0.05,2.43,0.14c4.62,0.51,7.74,2.28,9.36,5.31c0.66,1.26,0.99,2.56,0.99,3.92c0,1.35-0.31,2.74-0.94,4.19
		c-1.32,2.88-3.59,5.01-6.79,6.39c-2.07,0.9-4.34,1.35-6.8,1.35c-1.05,0-2.11-0.07-3.19-0.23c-5.37-0.78-9.09-3.33-11.16-7.65
		c-0.72,1.02-1.46,2.73-2.23,5.13c-0.77,2.4-1.21,4.25-1.33,5.54c-0.12,1.29-0.18,2.37-0.18,3.24c0,0.87,0.06,1.77,0.18,2.7
		c0.21,1.65,0.84,3.14,1.89,4.48c1.05,1.33,2.45,2.26,4.21,2.79c1.76,0.52,3.28,0.79,4.57,0.79c4.17,0,7.72-0.87,10.67-2.61
		c1.77-1.05,3.16-2.24,4.16-3.58c1-1.33,2.08-3.17,3.22-5.51c0.18-0.39,0.37-0.52,0.56-0.4c0.19,0.12,0.19,0.4-0.02,0.85
		c-1.14,2.31-2.2,4.14-3.17,5.49c-0.98,1.35-2.3,2.61-3.98,3.78C43.2,53.02,39.57,54.19,35.67,54.19z M28.92,26.56
		c2.13,5.43,6.57,8.15,13.32,8.15c3.81,0,6.86-1.06,9.16-3.19c2.29-2.13,3.44-4.55,3.44-7.25c0-2.7-1.17-4.8-3.51-6.3
		c-1.74-1.11-3.89-1.67-6.44-1.67s-5.12,0.74-7.69,2.21C33.96,20.39,31.2,23.08,28.92,26.56z"/>
	<path class="st0" d="M64.51,41.11c-0.99,1.91-1.58,3.33-1.78,4.27c-0.2,0.94-0.29,1.71-0.29,2.29s0.23,0.88,0.68,0.88
		c0.57,0,1.27-0.52,2.11-1.58c1.23-1.53,2.44-3.52,3.65-5.99c0.12-0.27,0.25-0.42,0.41-0.45c0.24-0.09,0.36,0,0.36,0.27
		c0,0.15-0.04,0.33-0.14,0.54c-2.76,5.58-5.08,8.37-6.97,8.37c-0.87,0-1.58-0.42-2.12-1.26c-0.27-0.45-0.4-1.05-0.4-1.8
		c0-0.75,0.15-1.66,0.45-2.74c-2.4,3.87-4.47,5.81-6.21,5.81c-0.48,0-0.92-0.15-1.31-0.45c-0.9-0.63-1.35-1.71-1.35-3.24
		c0-2.94,1.27-5.92,3.82-8.96c1.44-1.68,3.21-2.77,5.31-3.28c0.57-0.15,1.11-0.23,1.62-0.23c1.38,0,2.55,0.48,3.51,1.44
		c0.3,0.33,0.39,0.65,0.27,0.94c-0.12,0.3-0.38,0.42-0.76,0.36c-0.33-1.08-1.05-1.62-2.16-1.62c-1.29,0-2.88,1.02-4.77,3.06
		c-1.08,1.2-2.09,2.61-3.02,4.23c-1.17,1.95-1.75,3.51-1.75,4.68c0,1.17,0.38,1.76,1.13,1.76c1.8,0,4.15-2.76,7.06-8.28
		c0.57-1.11,1.05-1.87,1.44-2.27c0.39-0.4,0.88-0.61,1.49-0.61c0.12,0,0.43,0.04,0.92,0.13c0.5,0.09,0.86,0.11,1.1,0.05
		C66.27,37.99,65.5,39.21,64.51,41.11z"/>
	<path class="st0" d="M63.57,65.3c-1.65,0-2.48-0.83-2.48-2.48c0-2.37,1.55-7.2,4.64-14.49c-0.36-0.6-0.54-1.09-0.54-1.48
		c0-1.26,0.29-2.1,0.85-2.52c0.42-0.36,0.77-0.54,1.06-0.54c0.28,0,0.47,0.02,0.56,0.04c3.42-7.71,6.49-14.11,9.23-19.21
		c0.54-1.08,1.09-1.87,1.67-2.38c0.57-0.51,1.29-0.77,2.16-0.77c0.12,0,0.42,0.04,0.9,0.13c0.48,0.09,0.84,0.12,1.08,0.09
		c-1.41,1.32-3.39,4.23-5.94,8.73c-2.55,4.5-4.97,9.31-7.25,14.44c0.69,0.84,1.17,1.97,1.44,3.38l0.14,0.58c0.06,0,0.1,0,0.13,0
		c0.81,0,1.67-0.47,2.57-1.42c0.9-0.95,1.63-1.92,2.2-2.93c0.57-1,1.04-1.89,1.4-2.66c0.36-0.76,0.58-1.18,0.68-1.24
		c0.09-0.06,0.17-0.08,0.25-0.07c0.07,0.02,0.14,0.04,0.2,0.09s0.09,0.12,0.09,0.23c0,0.11-0.03,0.22-0.09,0.34
		c-2.49,5.67-4.94,8.51-7.33,8.51c0.03,0.48,0.04,1.27,0.04,2.36c0,1.09-0.27,2.72-0.81,4.88c-0.54,2.16-1.45,4.09-2.72,5.8
		C66.41,64.45,65.04,65.3,63.57,65.3z M63.52,62.83c0,0.87,0.24,1.31,0.72,1.31c0.57,0,1.36-0.67,2.36-2s1.86-3.17,2.56-5.49
		c0.7-2.33,1.06-4.43,1.06-6.32c0-0.15,0-0.3,0-0.45c-0.15,0-0.29,0-0.41,0c-0.87,0-1.6-0.24-2.2-0.72
		C64.89,56.05,63.52,60.61,63.52,62.83z M69.87,49.01h0.27c-0.09-1.29-0.45-2.33-1.08-3.11l-0.99,2.25
		C68.37,48.73,68.97,49.01,69.87,49.01z"/>
	<path class="st0" d="M79.77,42.71c-0.42,1.02-0.63,2.16-0.63,3.42c0,0.84,0.19,1.51,0.56,2c0.37,0.5,0.91,0.74,1.6,0.74
		c2.73,0,5.2-2.56,7.42-7.69c0.21-0.48,0.46-0.69,0.77-0.63c0.12,0.03,0.18,0.11,0.18,0.22c0,0.12-0.34,0.91-1.01,2.36
		c-0.68,1.46-1.36,2.63-2.05,3.53c-1.53,2.1-3.42,3.15-5.67,3.15c-1.2,0-2.22-0.39-3.06-1.17c-0.84-0.78-1.26-1.85-1.26-3.2
		s0.32-2.78,0.97-4.3c0.65-1.51,1.52-2.93,2.63-4.23c1.11-1.31,2.38-2.26,3.82-2.86c0.69-0.3,1.35-0.45,1.98-0.45
		c0.63,0,1.22,0.18,1.76,0.54c0.51,0.42,0.76,0.89,0.76,1.4c0,1.8-1.08,3.53-3.24,5.17c-0.66,0.51-1.59,0.97-2.79,1.37
		C81.31,42.51,80.4,42.71,79.77,42.71z M87.33,35.51c0-0.6-0.24-0.9-0.72-0.9c-0.84,0-2.11,1.03-3.82,3.1
		c-1.02,1.26-1.92,2.67-2.7,4.23c0.51,0,1.25-0.18,2.23-0.54c0.97-0.36,1.82-0.84,2.54-1.44C86.5,38.56,87.33,37.07,87.33,35.51z"/>
	<path class="st0" d="M142.18,27.91c0.54,0,0.81,0.45,0.81,1.35c0,0.9-0.29,2.63-0.88,5.17c-0.58,2.55-1.61,6-3.06,10.35
		c-1.46,4.35-2.95,7.89-4.48,10.62c0.45-0.03,1.25-0.06,2.41-0.09c1.15-0.03,2.1-0.06,2.83-0.09c0.73-0.03,1.62-0.13,2.65-0.29
		c1.04-0.17,1.88-0.4,2.54-0.7c1.59-0.75,2.52-1.86,2.79-3.33c-0.06-0.39-0.04-0.61,0.07-0.65c0.1-0.04,0.19,0.01,0.25,0.16
		c0.21,0.39,0.32,0.81,0.32,1.26c0,0.45-0.24,1.07-0.72,1.87c-0.48,0.79-1.43,1.48-2.83,2.07c-1.41,0.58-5.07,0.91-10.98,0.97
		c-1.44,2.16-3.26,4.06-5.47,5.71c-2.2,1.65-4.54,2.94-7,3.87c-2.46,0.93-4.54,1.4-6.23,1.4s-3.13-0.2-4.3-0.58
		c-2.25-0.75-3.38-1.89-3.38-3.42c0-1.98,1.81-3.72,5.44-5.22c4.65-1.92,11.13-2.88,19.44-2.88c2.94-7.2,4.99-13.01,6.16-17.42
		c-2.73,5.88-5.77,9.96-9.13,12.24c-1.77,1.2-3.48,1.8-5.13,1.8c-1.65,0-2.93-0.45-3.85-1.35c-0.92-0.9-1.37-2.13-1.37-3.69
		c0-3.27,2.22-8.52,6.66-15.75c1.38-2.25,2.49-4.53,3.33-6.84c0.96-2.55,1.44-4.74,1.44-6.57c0-1.83-0.59-3.13-1.78-3.92
		c-1.19-0.78-2.62-1.17-4.3-1.17c-0.66,0-1.37,0.08-2.11,0.23c-5.4,1.02-10.28,3.82-14.63,8.42c-2.19,2.31-3.8,4.68-4.81,7.11
		c-1.05,2.61-1.58,4.85-1.58,6.71c0,0.78,0.1,1.5,0.31,2.16c0.6,2.19,1.78,3.69,3.56,4.5c0.9,0.39,1.83,0.59,2.79,0.59
		c3.33,0,6.17-1.86,8.5-5.58c1.32-2.13,1.98-3.99,1.98-5.58c0-2.07-0.93-3.1-2.79-3.1c-0.36,0-0.8,0.05-1.31,0.16
		c-0.51,0.11-0.78,0.07-0.81-0.11c-0.03-0.24,0.31-0.45,1.03-0.63c0.72-0.18,1.41-0.27,2.07-0.27c1.56,0,2.61,0.66,3.15,1.98
		c0.24,0.57,0.36,1.19,0.36,1.84c0,1.32-0.47,2.85-1.4,4.59c-1.83,3.33-4.52,5.73-8.06,7.2c-1.08,0.45-2.07,0.68-2.97,0.68
		c-2.91,0-5.19-1.05-6.84-3.15c-1.44-1.77-2.16-3.79-2.16-6.08c0-2.28,0.55-4.56,1.67-6.84c1.11-2.28,2.56-4.38,4.34-6.3
		c1.78-1.92,3.7-3.54,5.74-4.86c2.04-1.32,4.19-2.41,6.44-3.29c2.37-0.93,4.54-1.4,6.52-1.4s3.73,0.3,5.26,0.9
		c1.59,0.72,2.71,1.69,3.38,2.9c0.66,1.21,0.99,2.5,0.99,3.85c0,3.39-1.25,7.16-3.73,11.3c-3.87,6.6-6.21,11.73-7.02,15.39
		c-0.12,0.63-0.18,1.29-0.18,1.98c0,0.69,0.23,1.33,0.67,1.93c0.45,0.6,1.11,0.9,1.98,0.9c1.23,0,2.56-0.53,4-1.58
		c1.71-1.2,3.42-3.17,5.13-5.9c2.85-4.56,5-9.23,6.44-14c0.09-0.48,0.36-0.85,0.81-1.13S141.97,27.91,142.18,27.91z M109.96,64
		c0,0.24,0.06,0.48,0.18,0.72c0.63,1.02,2.08,1.53,4.34,1.53c2.26,0,4.42-0.38,6.48-1.13c2.05-0.75,4.06-1.85,6.01-3.31
		c1.95-1.46,3.56-3.2,4.81-5.24c-7.86,0-13.89,1.21-18.09,3.65C111.21,61.66,109.96,62.92,109.96,64z"/>
	<path class="st0" d="M155.05,41.11c-0.99,1.91-1.58,3.33-1.78,4.27s-0.29,1.71-0.29,2.29s0.22,0.88,0.67,0.88
		c0.57,0,1.27-0.52,2.12-1.58c1.23-1.53,2.44-3.52,3.64-5.99c0.12-0.27,0.25-0.42,0.41-0.45c0.24-0.09,0.36,0,0.36,0.27
		c0,0.15-0.04,0.33-0.14,0.54c-2.76,5.58-5.08,8.37-6.97,8.37c-0.87,0-1.58-0.42-2.12-1.26c-0.27-0.45-0.4-1.05-0.4-1.8
		c0-0.75,0.15-1.66,0.45-2.74c-2.4,3.87-4.47,5.81-6.21,5.81c-0.48,0-0.92-0.15-1.3-0.45c-0.9-0.63-1.35-1.71-1.35-3.24
		c0-2.94,1.27-5.92,3.82-8.96c1.44-1.68,3.21-2.77,5.31-3.28c0.57-0.15,1.11-0.23,1.62-0.23c1.38,0,2.55,0.48,3.51,1.44
		c0.3,0.33,0.39,0.65,0.27,0.94c-0.12,0.3-0.38,0.42-0.76,0.36c-0.33-1.08-1.05-1.62-2.16-1.62c-1.29,0-2.88,1.02-4.77,3.06
		c-1.08,1.2-2.09,2.61-3.02,4.23c-1.17,1.95-1.75,3.51-1.75,4.68c0,1.17,0.38,1.76,1.13,1.76c1.8,0,4.16-2.76,7.07-8.28
		c0.57-1.11,1.05-1.87,1.44-2.27c0.39-0.4,0.88-0.61,1.49-0.61c0.12,0,0.43,0.04,0.92,0.13c0.5,0.09,0.86,0.11,1.1,0.05
		C156.81,37.99,156.04,39.21,155.05,41.11z"/>
	<path class="st0" d="M168.91,47.03c0,0.96,0.39,1.44,1.17,1.44c1.41,0,3.29-2.36,5.63-7.07c0.09-0.18,0.17-0.36,0.25-0.54
		c0.08-0.18,0.2-0.3,0.36-0.36c0.16-0.06,0.28-0.02,0.34,0.11c0.06,0.13,0.03,0.35-0.09,0.65c-2.4,5.58-4.83,8.37-7.29,8.37
		c-0.81,0-1.46-0.36-1.93-1.08c-0.48-0.72-0.72-1.43-0.72-2.14c0-0.7,0.07-1.36,0.22-1.96c-1.74,2.88-3.24,4.52-4.5,4.9
		c-0.36,0.15-0.71,0.23-1.06,0.23s-0.68-0.04-1.01-0.14c-1.47-0.39-2.21-1.56-2.21-3.51c0-1.32,0.34-2.78,1.01-4.39
		c0.67-1.6,1.63-3.14,2.86-4.61c1.23-1.47,2.71-2.46,4.46-2.97c0.63-0.21,1.37-0.31,2.23-0.31c0.86,0,1.81,0.27,2.86,0.81
		c2.04-3.84,3.78-7.39,5.22-10.67c0.42-0.99,0.83-1.63,1.24-1.91c0.4-0.28,0.78-0.43,1.13-0.43c0.34,0,0.55,0,0.63,0
		c0.07,0,0.36,0.04,0.85,0.11c0.5,0.08,0.88,0.1,1.15,0.07c-0.69,0.63-2.52,3.69-5.49,9.18c-3.78,7.02-6.06,11.7-6.84,14.04
		C169.06,45.74,168.91,46.46,168.91,47.03z M171.12,35.2c-0.39-0.39-0.94-0.58-1.64-0.58c-0.71,0-1.69,0.52-2.95,1.57
		c-2.01,1.68-3.67,3.75-4.99,6.21c-0.87,1.62-1.31,2.96-1.31,4c0,0.48,0.1,0.92,0.29,1.31c0.19,0.39,0.5,0.58,0.92,0.58
		c1.02,0,2.28-1.05,3.78-3.15C166.72,43.04,168.69,39.73,171.12,35.2z"/>
	<path class="st0" d="M184.12,33.89c2.19,0,3.29,1.38,3.29,4.14c0,1.26-0.33,2.61-0.99,4.05c-0.84,1.95-2.1,3.72-3.78,5.31
		c0.39,0.75,1.09,1.13,2.11,1.13c0.81,0,1.58-0.41,2.3-1.21c0.9-0.93,1.54-1.75,1.93-2.45c0.39-0.7,0.67-1.22,0.86-1.55
		c0.18-0.33,0.41-0.8,0.7-1.42c0.28-0.61,0.46-0.99,0.52-1.13c0.06-0.13,0.16-0.2,0.31-0.2c0.3-0.03,0.45,0.08,0.45,0.31
		c0,0.09-0.03,0.2-0.09,0.31l-0.27,0.63c-0.18,0.42-0.31,0.72-0.4,0.9c-0.09,0.18-0.25,0.5-0.47,0.97c-0.23,0.47-0.42,0.83-0.58,1.1
		c-0.17,0.27-0.39,0.63-0.67,1.08c-0.29,0.45-0.54,0.81-0.77,1.08c-0.22,0.27-0.5,0.57-0.83,0.9c-0.33,0.33-0.65,0.58-0.95,0.76
		c-0.75,0.45-1.46,0.67-2.12,0.67c-1.23,0-2.19-0.39-2.88-1.17c-1.38,1.02-2.66,1.53-3.83,1.53c-2.19,0-3.28-1.38-3.28-4.14
		c0-1.26,0.33-2.61,0.99-4.05c0.9-2.1,2.17-3.88,3.8-5.35C181.1,34.63,182.65,33.89,184.12,33.89z M184.62,35.29
		c-0.81,0-1.77,0.54-2.88,1.62c-1.11,1.08-2.1,2.55-2.97,4.41c-1.05,2.16-1.58,3.93-1.58,5.31c0,1.38,0.52,2.07,1.58,2.07
		c0.75,0,1.59-0.41,2.52-1.21c-0.48-0.69-0.72-1.42-0.72-2.21c0.06-1.29,0.58-1.93,1.58-1.93c0.39,0,0.71,0.13,0.97,0.4
		c0.25,0.27,0.38,0.52,0.38,0.74c0,0.22-0.03,0.46-0.09,0.7c0.51-0.75,1.09-1.81,1.75-3.19c0.75-1.53,1.13-3.03,1.13-4.5
		C186.28,36.02,185.72,35.29,184.62,35.29z"/>
	<path class="st0" d="M197.08,31.6c0,1.35-0.85,2.63-2.56,3.82c0.6,0.03,1.4,0.05,2.41,0.05c1,0,2.27-0.07,3.8-0.23
		c0.06,0.09,0.09,0.33,0.09,0.72c0,0.39-0.18,0.97-0.54,1.73c-0.36,0.76-0.68,1.42-0.97,1.98s-0.56,1.08-0.81,1.57
		c-0.26,0.5-0.54,1.1-0.86,1.82c-0.31,0.72-0.58,1.38-0.79,1.98c-0.75,2.28-0.63,3.42,0.36,3.42c1.26,0,3.12-2.5,5.58-7.52
		c0.21-0.39,0.38-0.54,0.52-0.45c0.13,0.09,0.2,0.2,0.2,0.34c0,0.13-0.2,0.6-0.58,1.4c-0.39,0.79-0.81,1.61-1.26,2.45
		c-0.45,0.84-1.16,1.82-2.11,2.93c-1.14,1.38-2.24,2.07-3.29,2.07c-1.17,0-1.98-0.71-2.43-2.12c-0.09-0.27-0.13-0.68-0.13-1.22
		s0.17-1.26,0.52-2.16c0.34-0.9,0.89-2,1.64-3.29c0.75-1.29,1.17-2.05,1.26-2.27s0.13-0.44,0.13-0.65c0-0.93-1.2-1.42-3.6-1.49
		l-0.54,1.44c-1.89,4.95-3.71,8.27-5.45,9.95c-0.3,0.27-0.45,0.18-0.45-0.27c0-0.09,0.03-0.19,0.09-0.31
		c1.68-2.22,3.13-4.85,4.37-7.88c1.23-3.03,2.08-5.91,2.56-8.64c0.18-0.93,0.6-1.4,1.26-1.4s1.14,0.42,1.44,1.26
		C197.04,30.92,197.08,31.24,197.08,31.6z"/>
	<path class="st0" d="M204.46,48.65c0.57,0,1.17-0.29,1.8-0.86c1.11-1.11,2.52-3.38,4.23-6.79c0.21-0.45,0.42-0.58,0.63-0.4
		c0.06,0.06,0.09,0.16,0.09,0.29c0,0.13-0.12,0.47-0.36,0.99c-0.24,0.53-0.46,1-0.65,1.42c-0.2,0.42-0.57,1.1-1.13,2.05
		c-0.56,0.94-1.06,1.67-1.51,2.18c-1.23,1.41-2.39,2.12-3.49,2.12c-1.1,0-1.88-0.33-2.36-0.99c-0.48-0.66-0.72-1.39-0.72-2.21
		c0-0.81,0.19-1.69,0.58-2.66l2.88-7.33c0.06-0.18,0.09-0.42,0.09-0.72s-0.18-0.69-0.54-1.17l2.48-0.04c0.69,0,1.09,0.13,1.21,0.38
		c0.12,0.25,0.03,0.65-0.27,1.19l-3.6,8.42c-0.51,1.11-0.77,2.06-0.77,2.84C203.06,48.22,203.53,48.65,204.46,48.65z M208.87,32.14
		c-0.42,0.36-0.89,0.54-1.4,0.54s-0.92-0.18-1.21-0.54c-0.3-0.36-0.42-0.79-0.36-1.31c0.09-0.51,0.34-0.94,0.77-1.31
		c0.42-0.36,0.88-0.54,1.39-0.54s0.92,0.18,1.24,0.54c0.31,0.36,0.43,0.8,0.34,1.31C209.54,31.34,209.29,31.78,208.87,32.14z"/>
	<path class="st0" d="M222.14,37.49c0-0.81-0.41-1.22-1.21-1.22c-1.2,0-2.59,0.68-4.16,2.05c-1.57,1.37-2.89,2.8-3.94,4.3
		c-0.45,0.87-0.82,1.97-1.1,3.29c-0.29,1.32-0.43,2.24-0.43,2.75c0,0.51,0.09,0.84,0.27,0.99h-2.83c-0.45,0-0.56-0.4-0.34-1.19
		c0.22-0.79,0.53-1.66,0.92-2.59c0.39-0.93,0.88-2,1.46-3.22s1.01-2.14,1.28-2.77c-2.46,4.65-4.05,7.32-4.77,8.01
		c-0.3,0.27-0.45,0.18-0.45-0.27c0-0.09,0.03-0.19,0.09-0.31c1.05-1.38,3.14-5.13,6.28-11.25c3.13-6.12,5.33-10.13,6.59-12.02
		c1.02-1.47,2.01-2.21,2.97-2.21h0.04h0.23c0.03,0,0.29,0.04,0.79,0.14c0.5,0.09,0.86,0.11,1.1,0.04c-1.11,0.84-2.64,2.77-4.59,5.78
		c-1.95,3.02-3.5,5.66-4.63,7.92c-1.14,2.27-1.91,3.98-2.3,5.15c2.73-3.39,5.18-5.49,7.33-6.3c1.02-0.33,1.83-0.49,2.43-0.49
		c1.32,0,1.98,0.56,1.98,1.67c0,0.36-0.08,0.76-0.22,1.21c-0.42,1.14-1.28,2.17-2.59,3.08c-1.3,0.92-2.74,1.45-4.3,1.6
		c-0.36,0.84-0.54,1.61-0.54,2.32c0,0.71,0.07,1.34,0.22,1.91c0.36,1.44,1.04,2.33,2.03,2.66c0.21,0.06,0.42,0.09,0.63,0.09
		c0.84,0,1.83-0.52,2.97-1.58c0.93-1.02,2.14-3.07,3.65-6.17c0.21-0.39,0.37-0.52,0.49-0.38c0.12,0.14,0.18,0.26,0.18,0.38
		c0,0.12-0.23,0.71-0.67,1.75c-0.45,1.05-1.08,2.21-1.89,3.46c-1.71,2.58-3.6,3.87-5.67,3.87c-1.26,0-2.24-0.36-2.92-1.08
		c-0.99-1.02-1.49-2.35-1.49-4c0-0.84,0.23-1.69,0.68-2.56c0.45-0.87,0.97-1.33,1.57-1.4c0.09,0,0.18,0,0.27,0
		c1.05,0,2.08-0.4,3.08-1.21S222.14,38.15,222.14,37.49z"/>
	<path class="st0" d="M228.62,48.65c0.57,0,1.17-0.29,1.8-0.86c1.11-1.11,2.52-3.38,4.23-6.79c0.21-0.45,0.42-0.58,0.63-0.4
		c0.06,0.06,0.09,0.16,0.09,0.29c0,0.13-0.12,0.47-0.36,0.99c-0.24,0.53-0.46,1-0.65,1.42c-0.2,0.42-0.57,1.1-1.13,2.05
		c-0.56,0.94-1.06,1.67-1.51,2.18c-1.23,1.41-2.39,2.12-3.49,2.12c-1.1,0-1.88-0.33-2.36-0.99c-0.48-0.66-0.72-1.39-0.72-2.21
		c0-0.81,0.19-1.69,0.58-2.66l2.88-7.33c0.06-0.18,0.09-0.42,0.09-0.72s-0.18-0.69-0.54-1.17l2.48-0.04c0.69,0,1.09,0.13,1.21,0.38
		c0.12,0.25,0.03,0.65-0.27,1.19l-3.6,8.42c-0.51,1.11-0.77,2.06-0.77,2.84C227.23,48.22,227.69,48.65,228.62,48.65z M233.03,32.14
		c-0.42,0.36-0.89,0.54-1.4,0.54s-0.92-0.18-1.21-0.54c-0.3-0.36-0.42-0.79-0.36-1.31c0.09-0.51,0.34-0.94,0.77-1.31
		c0.42-0.36,0.88-0.54,1.39-0.54s0.92,0.18,1.24,0.54c0.31,0.36,0.43,0.8,0.34,1.31C233.71,31.34,233.45,31.78,233.03,32.14z"/>
</g>
<g>
	<path class="st1" d="M248.91,39.49v1.29h-4.42v-1.29H248.91z"/>
	<path class="st1" d="M258.61,32.23h5.32v-0.94c0-0.36-0.03-0.77-0.09-1.22c0.85,0.11,1.4,0.2,1.65,0.29
		c0.18,0.06,0.27,0.15,0.27,0.25c0,0.16-0.22,0.32-0.65,0.49v1.12h5.57c0.43-0.46,0.7-0.69,0.8-0.69c0.11,0,0.45,0.26,1.03,0.78
		c0.25,0.24,0.38,0.43,0.38,0.58c0,0.21-0.22,0.32-0.67,0.32c-0.32,0-0.58,0.08-0.78,0.25c-0.22,0.19-0.54,0.44-0.96,0.76
		c-0.02,0.01-0.04,0.02-0.06,0.02c-0.08,0-0.12-0.03-0.12-0.1c0-0.01,0-0.02,0.01-0.03c0.19-0.49,0.35-0.96,0.46-1.41h-12.17
		c-0.06,0.71-0.25,1.27-0.57,1.69c-0.28,0.37-0.62,0.56-0.99,0.56c-0.45,0-0.67-0.24-0.67-0.72c0-0.29,0.19-0.53,0.57-0.72
		c0.45-0.23,0.78-0.53,0.99-0.89c0.18-0.31,0.3-0.72,0.36-1.22c0.01-0.06,0.04-0.08,0.11-0.08s0.11,0.03,0.11,0.08
		C258.54,31.57,258.58,31.85,258.61,32.23z M269.67,39.46v3.14l0.07,3.46c0,0.44-0.22,0.81-0.65,1.12
		c-0.28,0.22-0.65,0.33-1.11,0.33c-0.16,0-0.25-0.08-0.27-0.23c-0.03-0.31-0.21-0.54-0.54-0.7c-0.28-0.14-0.81-0.28-1.57-0.45
		c-0.05-0.01-0.07-0.06-0.07-0.13c0-0.1,0.03-0.15,0.09-0.14c0.96,0.09,1.79,0.13,2.47,0.13c0.27,0,0.4-0.13,0.4-0.4v-6.12h-10.53
		c-0.51,0-0.97,0.03-1.4,0.09l-0.19-0.7c0.48,0.09,1,0.13,1.58,0.13h12.69c0.56-0.66,0.89-0.98,0.99-0.98s0.47,0.25,1.09,0.76
		c0.28,0.22,0.42,0.4,0.42,0.53c0,0.11-0.08,0.17-0.25,0.17H269.67z M264.27,35.72c3.69,0.5,5.53,1.24,5.53,2.22
		c0,0.16-0.06,0.29-0.17,0.4c-0.09,0.09-0.2,0.13-0.33,0.13c-0.17,0-0.48-0.16-0.94-0.49c-1.18-0.87-2.61-1.52-4.3-1.96
		c-0.98,1.38-2.98,2.19-6.02,2.43c-0.06,0-0.09-0.04-0.09-0.13c0-0.07,0.02-0.11,0.07-0.12c2.9-0.49,4.68-1.51,5.34-3.07h-3.21
		c-0.42,0-0.85,0.03-1.32,0.09l-0.17-0.7c0.55,0.09,1.04,0.13,1.47,0.13h3.4c0.13-0.43,0.19-0.96,0.19-1.58
		c0.75,0.11,1.24,0.2,1.47,0.27c0.2,0.06,0.3,0.14,0.3,0.22c0,0.15-0.2,0.28-0.6,0.38c-0.04,0.24-0.1,0.47-0.18,0.71h3.73
		c0.48-0.58,0.78-0.87,0.89-0.87c0.09,0,0.41,0.23,0.95,0.69c0.25,0.21,0.38,0.37,0.38,0.49c0,0.11-0.09,0.17-0.27,0.17h-5.83
		C264.47,35.36,264.36,35.56,264.27,35.72z M264.34,44.26h-4.28v0.72c0,0.33-0.22,0.49-0.67,0.49c-0.34,0-0.51-0.14-0.51-0.42
		l0.06-2.36c0-0.88-0.03-1.69-0.09-2.44c0.51,0.21,0.96,0.44,1.34,0.69h4.04c0.36-0.39,0.59-0.58,0.68-0.58
		c0.1,0,0.35,0.18,0.76,0.53c0.19,0.17,0.29,0.32,0.29,0.44c0,0.11-0.16,0.27-0.47,0.47v0.71l0.06,2.13c0,0.35-0.24,0.53-0.72,0.53
		c-0.32,0-0.47-0.15-0.47-0.44V44.26z M264.34,43.79v-2.37h-4.28v2.37H264.34z"/>
	<path class="st1" d="M284.88,39.49v1.29h-4.43v-1.29H284.88z"/>
</g>
</svg>
