<svg xmlns="http://www.w3.org/2000/svg" viewBox="0 0 104.58 45.5"><defs><style>.cls-1{fill:#573b2e;}</style></defs><title>アセット 110</title><g id="レイヤー_2" data-name="レイヤー 2"><g id="素材"><path class="cls-1" d="M57.92,6.93c1.85,0,2.79-.45,2.79-1.35,0-.45.15-.67.47-.67s.47.36.47,1.1a1.82,1.82,0,0,1-1.26,1.68,5.42,5.42,0,0,1-2.23.59,11.74,11.74,0,0,1-1.6-.09A42.73,42.73,0,0,1,45.23,5.31a54.49,54.49,0,0,0-5.72,13.41,45.44,45.44,0,0,1-2.68,6.53A26.72,26.72,0,0,1,33.1,31a17.35,17.35,0,0,1-4.62,3.71,25,25,0,0,1-12.1,2.79A21.28,21.28,0,0,1,5.76,34.74,11,11,0,0,1,.09,26.28,21.13,21.13,0,0,1,0,24a15.42,15.42,0,0,1,.88-4.3,7.22,7.22,0,0,1,3.31-4.23,3.37,3.37,0,0,1,1.48-.59c.54,0,.78.26.72.77a5.19,5.19,0,0,1-.92.74c-.5.35-1,.71-1.42,1.08A6.49,6.49,0,0,0,2.7,19.21a8.63,8.63,0,0,0-1.17,4.46q0,5.67,3.87,8.73A15,15,0,0,0,10,35a15.51,15.51,0,0,0,5.14.9h.22a20.56,20.56,0,0,0,15.3-6.75Q34.47,25.07,41,10.67a50.76,50.76,0,0,1,2.88-5.81A48,48,0,0,0,29.61,2.34,14.23,14.23,0,0,0,19.3,6.17c-2.13,2-3.19,4.16-3.19,6.38q0,3.64,3.19,4.64a7.68,7.68,0,0,0,2.05.31,8.08,8.08,0,0,0,2.12-.33,5.51,5.51,0,0,0,2.29-1.4,8.69,8.69,0,0,0,1.67-2.09,2.8,2.8,0,0,0,.47-1.58V12c.24-.2.45-.27.63-.2s.27.27.27.57a6.76,6.76,0,0,1-3.55,5.26,7,7,0,0,1-3.52,1.12,8.29,8.29,0,0,1-2.88-.45,6.93,6.93,0,0,1-4.68-5,8.78,8.78,0,0,1-.31-2.3,9.53,9.53,0,0,1,1.66-5.26q3-4.59,9.32-5.54A19,19,0,0,1,27.58,0c.87,0,1.89,0,3,.13A26.82,26.82,0,0,1,35.21,1c1.91.5,3.86,1.1,5.85,1.77S44.25,3.89,44.64,4c1.47-1.79,2.57-2.71,3.28-2.74a1.71,1.71,0,0,1,.61-.09c.26,0,.46.21.61.63s0,.69-.32.81a1.23,1.23,0,0,1-.58,0c-.18-.11-.55.07-1.1.57A11,11,0,0,0,45.9,4.37a65.38,65.38,0,0,0,7.42,2A27.62,27.62,0,0,0,57.92,6.93Z"/><path class="cls-1" d="M50.71,17.55q3.28,0,3.29,4.14a9.76,9.76,0,0,1-1,4,16,16,0,0,1-3.78,5.31,2.16,2.16,0,0,0,2.11,1.12A3.09,3.09,0,0,0,53.64,31a12.93,12.93,0,0,0,1.94-2.45c.38-.71.67-1.22.85-1.55s.41-.81.7-1.42.45-1,.52-1.13a.31.31,0,0,1,.31-.2c.3,0,.45.08.45.31a.71.71,0,0,1-.09.32l-.27.63c-.18.42-.32.72-.4.9l-.48,1c-.22.46-.42.83-.58,1.1s-.39.63-.68,1.08a10.56,10.56,0,0,1-.76,1.08q-.34.41-.84.9a5,5,0,0,1-.94.76,4.17,4.17,0,0,1-2.12.68,3.61,3.61,0,0,1-2.87-1.17,6.64,6.64,0,0,1-3.83,1.53q-3.28,0-3.28-4.14a9.74,9.74,0,0,1,1-4.05,15.07,15.07,0,0,1,3.81-5.36A7.2,7.2,0,0,1,50.71,17.55Zm.5,1.39a4.59,4.59,0,0,0-2.88,1.62,15,15,0,0,0-3,4.41,12.94,12.94,0,0,0-1.57,5.32c0,1.38.52,2.06,1.57,2.06a4,4,0,0,0,2.52-1.21,3.81,3.81,0,0,1-.72-2.21c.06-1.28.59-1.93,1.57-1.93a1.24,1.24,0,0,1,1,.41,1.08,1.08,0,0,1,.38.74,3.32,3.32,0,0,1-.08.69,25.92,25.92,0,0,0,1.75-3.19,10.19,10.19,0,0,0,1.13-4.5C52.88,19.68,52.32,18.94,51.21,18.94Z"/><path class="cls-1" d="M71.1,21.06a11.07,11.07,0,0,1-1,4.36A19.15,19.15,0,0,1,67.21,30a9.18,9.18,0,0,1-4.44,3,8.62,8.62,0,0,1-2.27.27,6.09,6.09,0,0,1-2.81-.81L53.41,43.16A5.34,5.34,0,0,1,52.15,45,1.85,1.85,0,0,1,51,45.5h-.65a8.22,8.22,0,0,1-.81-.14,3.68,3.68,0,0,0-1.06-.09q1-.95,5-9t4.56-10.82c-.33.48-.64.74-.94.76s-.18-.17,0-.51.48-1,.9-2a9.31,9.31,0,0,0,.81-3.57c0-1.1-.21-1.73-.63-1.92a24.64,24.64,0,0,1,3.15-.42.54.54,0,0,1,.56.38,2.56,2.56,0,0,1,.11.81,17.69,17.69,0,0,1-1.26,6.12l.9-1.44a23.76,23.76,0,0,1,2.37-3.38c.49-.5,1-1,1.59-1.57a3.74,3.74,0,0,1,2.52-1.26,2.48,2.48,0,0,1,.68.09Q71.1,18.14,71.1,21.06Zm-2.16-.45a3.12,3.12,0,0,0-.29-1.33,1,1,0,0,0-.93-.61q-1.57,0-3.66,2.93a105.07,105.07,0,0,0-6,10.21,2.15,2.15,0,0,0,1.62.59,5.44,5.44,0,0,0,2.92-1.57,21.25,21.25,0,0,0,5-6.26A9,9,0,0,0,68.94,20.61Z"/><path class="cls-1" d="M74.47,32.31a2.74,2.74,0,0,0,1.8-.85,28.86,28.86,0,0,0,4.23-6.8c.21-.45.42-.58.63-.41a.43.43,0,0,1,.09.3,3.74,3.74,0,0,1-.36,1c-.24.52-.45,1-.65,1.42s-.57,1.1-1.12,2a14.46,14.46,0,0,1-1.51,2.18c-1.23,1.42-2.39,2.12-3.49,2.12a2.72,2.72,0,0,1-2.36-1A3.65,3.65,0,0,1,71,30.1a7.07,7.07,0,0,1,.58-2.65l2.88-7.33a2.41,2.41,0,0,0,.09-.73A2.24,2.24,0,0,0,74,18.22l2.48,0c.69,0,1.09.13,1.21.38s0,.65-.27,1.19l-3.6,8.42A7,7,0,0,0,73.08,31C73.08,31.88,73.54,32.31,74.47,32.31Zm4.41-16.52a2,2,0,0,1-1.39.54,1.48,1.48,0,0,1-1.22-.54,1.64,1.64,0,0,1-.36-1.3,2.2,2.2,0,0,1,.77-1.31,2.13,2.13,0,0,1,1.39-.54,1.6,1.6,0,0,1,1.24.54,1.49,1.49,0,0,1,.34,1.31A2.18,2.18,0,0,1,78.88,15.79Z"/><path class="cls-1" d="M88.83,23a5.46,5.46,0,0,0,1.57-3.2c0-.87-.36-1.3-1.08-1.3q-2.11,0-4.81,3.87a16.64,16.64,0,0,0-1.67,3.19A9.6,9.6,0,0,0,82,29.09a4.58,4.58,0,0,0,.66,2.59,2.25,2.25,0,0,0,2,1A5.16,5.16,0,0,0,87.25,32,7.38,7.38,0,0,0,89.48,30a24.21,24.21,0,0,0,1.6-2.37c.36-.62.85-1.57,1.48-2.83.21-.42.39-.59.54-.52a.36.36,0,0,1,.23.32A7,7,0,0,1,92.72,26c-.4.86-.81,1.66-1.21,2.41A17.52,17.52,0,0,1,89.77,31a6.71,6.71,0,0,1-5.53,2.52,4.61,4.61,0,0,1-3.62-1.24,4.15,4.15,0,0,1-1.11-2.86,11.57,11.57,0,0,1,1-4.32,19.6,19.6,0,0,1,2.23-4c1.74-2.36,3.75-3.55,6-3.55a3.18,3.18,0,0,1,2.41.79,2.58,2.58,0,0,1,.74,1.82,3.32,3.32,0,0,1-1.26,2.61,1.74,1.74,0,0,1-1.06.58A1,1,0,0,1,88.83,23Z"/><path class="cls-1" d="M96.12,32.44a7,7,0,0,0,.81.1c1.2,0,2.38-.71,3.55-2.12a44.55,44.55,0,0,0,3.38-5.9.32.32,0,0,1,.31-.22c.27,0,.41.08.41.32a2.36,2.36,0,0,1-.2.51c-.14.29-.27.57-.39.86s-.31.69-.58,1.23-.5,1-.7,1.31-.44.74-.74,1.22a5.48,5.48,0,0,1-.9,1.12l-.95,1a4.26,4.26,0,0,1-1.8,1.08,5.44,5.44,0,0,1-3.24.09,4.69,4.69,0,0,1-1.84.45Q90,33.48,89.37,31a6.36,6.36,0,0,1-.14-1.42,2.68,2.68,0,0,1,.57-1.6A1.72,1.72,0,0,1,91,27.13c1.53-2.9,2.83-5.53,3.91-7.87q1.8-3.83,4.19-3.83a2.79,2.79,0,0,1,1.24.3c.4.19.55.41.45.65s-.33.29-.66.13a2.27,2.27,0,0,0-.85-.22,1.39,1.39,0,0,0-.63.13c-1,.49-1.53,1.52-1.53,3.11a5.12,5.12,0,0,0,.36,2.07c.24.54.51,1.12.81,1.75a10.07,10.07,0,0,1,1,3.83,5.23,5.23,0,0,1-.94,2.92A8.26,8.26,0,0,1,96.12,32.44Zm-4.91-1.52a4.26,4.26,0,0,0,.05.58,1.56,1.56,0,0,0,1.66,1.21,2,2,0,0,0,.9-.17A4,4,0,0,1,92,29.16,2.46,2.46,0,0,0,91.21,30.92Zm3.38,1.21q2-1.53,2-5a31.85,31.85,0,0,0-.32-3.83,30.91,30.91,0,0,1-.31-3.28,10.24,10.24,0,0,1,0-1.17q-3.42,6.84-4.23,8.32c.63,0,1,.45,1,1.36A3.54,3.54,0,0,0,94.59,32.13Z"/></g></g></svg>